<svg width="32" height="32" viewBox="0 0 32 32" fill="none" xmlns="http://www.w3.org/2000/svg">
<path fill-rule="evenodd" clip-rule="evenodd" d="M6.2574 11.2091C6.2574 8.47887 8.47821 6.25808 11.2084 6.25808H20.7902C23.5204 6.25808 25.7419 8.47887 25.7419 11.2091V20.7909C25.7419 23.5211 23.5204 25.7419 20.7902 25.7419H11.2084C8.47821 25.7419 6.2574 23.5211 6.2574 20.7909V11.2091ZM11.2084 28H20.7902C24.7651 28 27.9993 24.7658 27.9993 20.7909V11.2091C27.9993 7.23349 24.7651 4 20.7902 4H11.2084C7.23283 4 4 7.23349 4 11.2091V20.7909C4 24.7658 7.23283 28 11.2084 28ZM22.3538 8.28485C21.5765 8.28485 20.9463 8.915 20.9463 9.69166C20.9463 10.469 21.5765 11.0992 22.3538 11.0992C23.1305 11.0992 23.7606 10.469 23.7606 9.69166C23.7606 8.915 23.1305 8.28485 22.3538 8.28485ZM16.0983 19.7856C14.0105 19.7856 12.312 18.0871 12.312 16C12.312 13.9121 14.0105 12.2136 16.0983 12.2136C18.1855 12.2136 19.884 13.9121 19.884 16C19.884 18.0871 18.1855 19.7856 16.0983 19.7856ZM16.0983 10.0891C12.839 10.0891 10.1875 12.7407 10.1875 16C10.1875 19.2586 12.839 21.9101 16.0983 21.9101C19.3569 21.9101 22.0084 19.2586 22.0084 16C22.0084 12.7407 19.3569 10.0891 16.0983 10.0891Z" fill="white"/>
</svg>
