<svg width="32" height="32" viewBox="0 0 32 32" fill="none" xmlns="http://www.w3.org/2000/svg">
<path d="M27.9018 8.61422C27.1391 8.95925 26.2966 9.16806 25.4743 9.30596C25.8645 9.24064 26.4379 8.53382 26.6679 8.24796C27.0185 7.81249 27.3094 7.31561 27.473 6.77908C27.4942 6.73721 27.5104 6.68473 27.468 6.6529C27.4155 6.63225 27.3814 6.64285 27.3395 6.66351C26.4211 7.15537 25.472 7.51213 24.4615 7.76504C24.3777 7.7857 24.3152 7.76504 24.2627 7.712C24.1795 7.61765 24.1003 7.52832 24.0115 7.45518C23.5866 7.09396 23.131 6.81034 22.6174 6.60097C21.943 6.32629 21.206 6.20961 20.4797 6.25651C19.7723 6.30285 19.0783 6.5016 18.4514 6.82932C17.8227 7.15761 17.2616 7.61485 16.8144 8.1659C16.3527 8.73648 16.0121 9.40924 15.8374 10.1233C15.6699 10.8123 15.6833 11.4934 15.786 12.1896C15.8016 12.3052 15.7911 12.3208 15.6867 12.3052C11.7344 11.7167 8.45829 10.3031 5.79854 7.27205C5.68297 7.1403 5.62045 7.1403 5.52609 7.28211C4.36203 9.02681 4.92649 11.8289 6.38031 13.2063C6.5746 13.3905 6.77334 13.5736 6.98828 13.7411C6.90956 13.7573 5.9426 13.6529 5.08002 13.2063C4.96501 13.1331 4.90639 13.1755 4.89634 13.3062C4.88573 13.4949 4.90193 13.6685 4.92761 13.8729C5.15093 15.641 6.37584 17.2763 8.05298 17.915C8.25174 17.9987 8.47225 18.0719 8.68664 18.1087C8.30476 18.1925 7.91115 18.2522 6.8152 18.1662C6.67898 18.1405 6.62706 18.2086 6.67898 18.3398C7.50304 20.5837 9.27956 21.2519 10.6111 21.6321C10.7892 21.6634 10.9679 21.6634 11.1465 21.7053C11.1354 21.7215 11.1247 21.7215 11.1141 21.7371C10.6731 22.4099 9.14222 22.9107 8.42927 23.1597C7.13289 23.613 5.72095 23.8168 4.35088 23.6817C4.13202 23.6493 4.08568 23.6521 4.0265 23.6817C3.9662 23.7191 4.01813 23.7716 4.08904 23.8285C4.36707 24.0122 4.65012 24.1747 4.93876 24.3321C5.80859 24.7933 6.71584 25.1606 7.66495 25.4225C12.5641 26.7752 18.0823 25.7809 21.761 22.1263C24.6496 19.256 25.6624 15.2977 25.6624 11.3348C25.6624 11.1796 25.8455 11.0942 25.9538 11.0121C26.7059 10.4477 27.3122 9.77157 27.8727 9.01731C27.9989 8.84758 28 8.69685 28 8.63488C28 8.62427 28 8.61422 28 8.61422C28 8.55057 27.9989 8.57011 27.9018 8.61422Z" fill="white"/>
</svg>
